<?xml version="1.0" encoding="UTF-8" standalone="no"?>
<!-- Created with Inkscape (http://www.inkscape.org/) -->

<svg
   width="210mm"
   height="297mm"
   viewBox="0 0 210 297"
   version="1.1"
   id="svg1"
   xml:space="preserve"
   inkscape:export-filename="bitmap.svg"
   inkscape:export-xdpi="96"
   inkscape:export-ydpi="96"
   inkscape:version="1.4.2 (ebf0e940, 2025-05-08)"
   sodipodi:docname="Anisija.svg"
   xmlns:inkscape="http://www.inkscape.org/namespaces/inkscape"
   xmlns:sodipodi="http://sodipodi.sourceforge.net/DTD/sodipodi-0.dtd"
   xmlns="http://www.w3.org/2000/svg"
   xmlns:svg="http://www.w3.org/2000/svg"><sodipodi:namedview
     id="namedview1"
     pagecolor="#ffffff"
     bordercolor="#000000"
     borderopacity="0.25"
     inkscape:showpageshadow="2"
     inkscape:pageopacity="0.0"
     inkscape:pagecheckerboard="0"
     inkscape:deskcolor="#d1d1d1"
     inkscape:document-units="mm"
     inkscape:zoom="0.5597831"
     inkscape:cx="405.5142"
     inkscape:cy="577.0092"
     inkscape:window-width="1200"
     inkscape:window-height="871"
     inkscape:window-x="0"
     inkscape:window-y="31"
     inkscape:window-maximized="0"
     inkscape:current-layer="layer1" /><defs
     id="defs1" /><g
     inkscape:label="Layer 1"
     inkscape:groupmode="layer"
     id="layer1"><g
       id="g79"
       transform="translate(-13.528513,45.713428)"
       inkscape:export-filename="anisija-logo.png"
       inkscape:export-xdpi="96"
       inkscape:export-ydpi="96"><path
         style="fill:#7c0920;fill-opacity:1"
         d="m 117.50682,170.29797 c -1.21319,-1.43969 -4.71535,-5.93106 -9.55874,-12.25866 -1.01865,-1.3308 -2.413,-3.1398 -3.09856,-4.02 l -1.24648,-1.60036 2.04023,-0.67484 c 7.47226,-2.47156 16.06488,-2.68007 23.74165,-0.5761 1.88513,0.51666 3.52747,1.03933 3.64963,1.1615 0.12216,0.12216 -0.11978,0.62368 -0.53764,1.11449 -0.88353,1.03775 -1.72722,2.12491 -8.40825,10.83469 -2.72619,3.55402 -5.10528,6.61988 -5.28687,6.81303 -0.27053,0.28774 -0.50444,0.14437 -1.29497,-0.79375 z M 91.411622,104.09969 V 78.275378 l 2.01768,-1.65703 c 2.60827,-2.14206 10.225948,-7.8589 10.483878,-7.86785 0.10914,-0.004 0.19844,11.35297 0.19844,25.23725 0,24.032702 -0.0241,25.321432 -0.50127,26.854722 -1.4393,4.62448 -6.225288,8.69804 -10.545078,8.97538 l -1.65365,0.10616 z m 50.932298,25.38934 c -2.26273,-0.56158 -3.88186,-1.58741 -5.99259,-3.79668 -2.15516,-2.25578 -2.94677,-3.8008 -3.42152,-6.6779 -0.24616,-1.4918 -0.35263,-61.118748 -0.10913,-61.118748 0.2206,0 12.14243,9.033226 12.48774,9.462016 0.24407,0.30308 0.32273,7.41464 0.33603,30.37825 0.01,16.490402 -0.0598,30.464912 -0.15405,31.054472 -0.15895,0.99406 -0.23141,1.07029 -0.99748,1.04942 -0.45435,-0.0124 -1.4214,-0.17025 -2.149,-0.35083 z m -26.45834,-8.72538 c -1.34303,-0.58671 -2.5601,-1.79748 -3.21022,-3.1936 l -0.62106,-1.33373 -0.003,-35.500582 -0.003,-35.500583 3.10885,-5.44281 c 1.70987,-2.993546 3.17803,-5.443205 3.26259,-5.443688 0.0846,-4.83e-4 1.60634,2.539945 3.38175,5.645397 l 3.22801,5.646275 -0.0745,35.297999 c -0.0673,31.916892 -0.11563,35.388542 -0.50437,36.243282 -0.63479,1.39572 -2.06724,2.90876 -3.27198,3.45606 -1.26234,0.57347 -4.11423,0.64134 -5.29394,0.12598 z"
         id="path1"
         sodipodi:nodetypes="ssscsssssssccscscsccssssscssscscccsssccsscc" /><path
         style="fill:#000000;fill-opacity:1"
         d="m 117.50682,170.29797 c -1.21319,-1.43969 -4.71535,-5.93106 -9.55874,-12.25866 -1.01865,-1.3308 -2.413,-3.1398 -3.09856,-4.02 l -1.24648,-1.60036 2.04023,-0.67484 c 7.47226,-2.47156 16.06488,-2.68007 23.74165,-0.5761 1.88513,0.51666 3.52747,1.03933 3.64963,1.1615 0.12216,0.12216 -0.11978,0.62368 -0.53764,1.11449 -0.88353,1.03775 -1.72722,2.12491 -8.40825,10.83469 -2.72619,3.55402 -5.10528,6.61988 -5.28687,6.81303 -0.27053,0.28774 -0.50444,0.14437 -1.29497,-0.79375 z"
         id="path79"
         sodipodi:nodetypes="ssscsssssss" /></g></g></svg>
